<svg width="20" height="20" viewBox="0 0 20 20" fill="none" xmlns="http://www.w3.org/2000/svg">
<path d="M4.75 1V3.25M15.25 1V3.25M1 16.75V5.5C1 4.90326 1.23705 4.33097 1.65901 3.90901C2.08097 3.48705 2.65326 3.25 3.25 3.25H16.75C17.3467 3.25 17.919 3.48705 18.341 3.90901C18.7629 4.33097 19 4.90326 19 5.5V16.75M1 16.75C1 17.3467 1.23705 17.919 1.65901 18.341C2.08097 18.7629 2.65326 19 3.25 19H16.75C17.3467 19 17.919 18.7629 18.341 18.341C18.7629 17.919 19 17.3467 19 16.75M1 16.75V9.25C1 8.65326 1.23705 8.08097 1.65901 7.65901C2.08097 7.23705 2.65326 7 3.25 7H16.75C17.3467 7 17.919 7.23705 18.341 7.65901C18.7629 8.08097 19 8.65326 19 9.25V16.75" stroke="black" stroke-width="1.5" stroke-linecap="round" stroke-linejoin="round"/>
</svg>

